<?xml version="1.0" standalone="no"?>
<!DOCTYPE svg PUBLIC "-//W3C//DTD SVG 20010904//EN"
 "http://www.w3.org/TR/2001/REC-SVG-20010904/DTD/svg10.dtd">
<svg version="1.0" xmlns="http://www.w3.org/2000/svg"
 width="740.000000pt" height="740.000000pt" viewBox="0 0 740.000000 740.000000"
 preserveAspectRatio="xMidYMid meet">
<metadata>
Created by potrace 1.14, written by Peter Selinger 2001-2017
</metadata>
<g transform="translate(0.000000,740.000000) scale(0.100000,-0.100000)"
fill="#000000" stroke="none">
<path d="M3560 5868 c0 -5 -9 -8 -19 -8 -34 0 -74 -64 -75 -122 -1 -28 3 -56
9 -62 15 -15 11 -43 -11 -67 -9 -10 -14 -19 -11 -19 4 0 -1 -8 -10 -18 -30
-32 -53 -62 -47 -62 3 0 -1 -7 -8 -15 -30 -34 -38 -45 -32 -45 4 0 -2 -9 -14
-20 -12 -12 -22 -24 -22 -29 0 -4 -8 -17 -17 -29 -10 -12 -34 -44 -53 -72 -19
-28 -45 -63 -57 -78 -13 -15 -23 -32 -23 -39 0 -6 -9 -18 -20 -26 -11 -8 -17
-17 -13 -20 3 -4 1 -7 -5 -7 -7 0 -12 -4 -12 -9 0 -6 -11 -22 -25 -37 -14 -15
-23 -29 -21 -31 2 -2 -7 -16 -20 -30 -13 -14 -21 -29 -19 -33 3 -4 -2 -10 -10
-14 -8 -3 -15 -11 -15 -18 0 -8 -9 -20 -20 -28 -11 -8 -20 -20 -20 -27 0 -7
-4 -13 -10 -13 -5 0 -10 -6 -10 -13 0 -23 -38 -60 -55 -53 -9 3 -13 2 -10 -3
6 -11 -35 -8 -54 4 -9 5 -12 4 -8 -2 4 -7 -17 -11 -61 -11 -289 1 -482 -6
-482 -16 0 -7 -3 -7 -8 1 -9 14 -51 14 -69 1 -6 -5 -14 -5 -18 2 -3 5 -13 10
-21 10 -10 0 -12 -5 -8 -12 6 -10 5 -10 -7 -1 -8 6 -20 8 -27 4 -7 -4 -26 -7
-42 -6 -17 1 -27 -2 -23 -8 3 -5 0 -8 -8 -5 -7 2 -25 -1 -38 -8 -14 -7 -28
-11 -33 -8 -4 3 -8 0 -8 -6 0 -6 -4 -8 -10 -5 -5 3 -10 2 -10 -3 0 -6 -11 -13
-25 -16 -14 -4 -25 -11 -25 -16 0 -6 -5 -10 -10 -10 -6 0 -16 -5 -23 -10 -46
-39 -65 -60 -86 -93 -12 -21 -30 -44 -38 -52 -8 -8 -12 -15 -9 -15 3 0 -6 -22
-19 -49 -14 -27 -25 -64 -25 -82 0 -19 -4 -41 -10 -49 -5 -9 -5 -19 2 -27 6
-7 6 -13 1 -13 -5 0 -8 -17 -7 -37 1 -21 3 -38 4 -38 1 0 2 -15 3 -33 1 -17
-2 -32 -6 -32 -4 0 -4 -7 1 -17 5 -9 6 -28 2 -43 -4 -15 -4 -33 1 -41 5 -8 3
-16 -4 -21 -9 -6 -9 -8 1 -8 6 0 12 -5 12 -11 0 -5 -6 -7 -12 -3 -10 6 -10 5
-1 -7 7 -9 12 -74 13 -194 1 -99 2 -213 3 -252 0 -40 5 -73 10 -73 5 0 4 -6
-2 -14 -9 -10 -9 -16 -1 -21 8 -5 8 -11 1 -19 -7 -9 -7 -16 2 -25 9 -11 9 -14
-1 -18 -6 -3 -9 -10 -5 -16 3 -6 8 -123 10 -261 5 -295 5 -307 17 -325 6 -9 5
-12 -1 -8 -7 4 -9 -10 -6 -41 7 -79 7 -107 0 -125 -3 -9 -3 -17 1 -17 9 0 9
-161 -1 -177 -4 -6 -3 -14 2 -18 5 -3 10 -13 10 -23 2 -60 7 -92 13 -92 5 0 8
-9 8 -20 0 -11 4 -28 9 -38 5 -9 15 -32 21 -49 7 -18 16 -33 21 -33 5 0 9 -7
9 -15 0 -16 119 -137 129 -131 9 6 31 -21 23 -29 -4 -4 -2 -6 3 -4 6 1 22 -3
37 -9 15 -6 38 -13 50 -14 13 -2 28 -6 33 -10 11 -7 123 -21 173 -22 17 0 32
-3 32 -6 0 -12 298 1 319 14 6 4 11 2 11 -5 0 -8 4 -8 15 1 12 10 15 10 15 -1
0 -9 3 -10 8 -3 4 6 30 12 57 13 101 5 110 6 117 16 5 6 8 5 8 -4 0 -11 3 -11
15 -1 12 10 15 10 15 0 0 -10 3 -10 15 0 12 10 15 10 15 -1 0 -12 2 -12 9 -1
9 15 20 15 37 1 6 -5 14 -6 18 -2 12 12 36 12 36 0 0 -8 3 -8 8 -2 4 6 25 11
47 11 22 0 43 -5 47 -11 5 -6 8 -6 8 0 0 6 47 10 123 10 67 -1 129 3 138 7 9
4 19 4 23 1 8 -8 56 -11 56 -3 0 3 38 5 85 5 52 0 85 3 85 10 0 5 5 2 11 -8 7
-12 15 -15 22 -9 7 5 39 9 72 10 33 1 97 3 142 6 46 2 81 0 78 -4 -3 -5 0 -10
6 -12 11 -4 15 -28 21 -130 1 -27 5 -48 8 -48 4 0 8 -24 9 -54 1 -30 4 -64 6
-77 11 -57 14 -70 20 -79 3 -6 0 -10 -7 -10 -9 0 -10 -2 -1 -8 6 -4 11 -28 10
-53 0 -24 3 -50 7 -57 4 -7 4 -12 -1 -13 -4 0 3 -5 17 -10 18 -7 26 -7 29 2 2
6 14 21 27 32 13 11 24 24 24 29 0 4 7 16 16 25 75 85 104 120 104 130 0 6 9
15 20 18 11 3 20 13 20 20 0 8 9 19 20 25 11 6 20 16 20 23 0 7 13 24 28 37
15 14 38 40 51 58 12 18 26 30 30 28 4 -3 8 4 8 15 1 11 15 30 30 43 16 13 34
35 41 48 14 26 68 52 77 38 5 -9 37 -6 54 5 5 3 13 0 17 -6 4 -8 9 -7 15 2 8
12 11 11 19 -1 5 -8 10 -10 10 -4 0 12 29 12 49 -1 9 -5 12 -4 8 2 -5 7 32 10
109 9 64 0 117 0 119 2 1 2 45 5 96 7 92 3 139 9 169 22 8 3 17 7 20 8 29 8
81 37 106 58 18 15 37 27 44 27 6 0 9 4 6 8 -2 4 9 18 25 31 16 13 29 32 29
42 0 11 7 19 15 19 8 0 18 12 21 28 4 15 14 32 21 37 9 7 17 37 20 75 3 36 11
73 17 82 14 20 12 158 -2 167 -6 4 -12 273 -16 631 -8 781 -9 822 -20 839 -6
10 -6 12 2 7 7 -4 12 -3 12 3 0 5 -5 13 -10 16 -6 4 -7 13 -1 24 6 10 6 23 1
31 -5 8 -4 22 2 33 5 11 6 22 2 26 -13 9 -14 41 -2 41 6 0 6 6 -1 14 -9 10 -9
16 -1 21 8 5 8 10 0 20 -8 9 -8 15 0 20 7 4 7 12 0 24 -5 10 -6 21 -3 25 3 3
1 6 -5 6 -8 0 -12 22 -12 64 0 73 -6 96 -26 96 -9 0 -14 12 -14 34 0 23 -8 41
-25 57 -13 13 -25 32 -25 42 0 9 -7 17 -15 17 -8 0 -15 7 -15 15 0 8 -4 15 -9
15 -4 0 -21 11 -37 25 -46 40 -54 46 -54 40 0 -4 -7 1 -16 9 -8 9 -23 16 -33
16 -9 0 -22 5 -27 10 -14 14 -82 28 -169 35 -27 2 -51 5 -52 6 -2 1 -7 3 -13
4 -5 1 -13 3 -17 5 -21 5 -180 4 -177 -2 3 -4 -14 -6 -36 -5 -22 2 -40 0 -40
-4 0 -8 -4 -8 -146 -12 -112 -3 -123 -2 -146 18 -13 11 -27 29 -31 38 -3 9
-13 17 -22 17 -8 0 -15 6 -15 13 0 8 -20 33 -45 56 -25 23 -45 46 -45 52 0 5
-7 9 -15 9 -8 0 -15 5 -15 10 0 17 -3 21 -85 106 -44 46 -109 115 -145 153
-36 39 -71 71 -77 71 -7 0 -13 7 -13 16 0 9 -21 36 -46 60 -25 24 -42 44 -38
44 4 0 -4 9 -17 21 -13 12 -23 25 -22 30 2 5 -1 9 -6 9 -4 0 -22 14 -40 30
-30 29 -31 34 -31 108 0 71 -2 80 -27 107 -17 19 -35 29 -47 27 -10 -2 -16 0
-13 5 3 4 -12 8 -34 8 -21 0 -39 -3 -39 -7z m20 -271 c0 12 17 12 38 0 6 -5
12 -4 12 1 0 5 13 9 29 10 22 0 37 -8 57 -33 15 -19 31 -32 36 -29 4 3 8 1 8
-3 0 -16 53 -78 178 -208 6 -8 12 -19 12 -25 0 -6 3 -9 8 -7 4 2 17 -6 30 -19
12 -13 20 -24 17 -24 -4 0 19 -25 49 -57 31 -31 56 -60 56 -65 0 -4 7 -8 15
-8 8 0 15 -4 15 -8 0 -5 11 -22 25 -38 14 -16 25 -33 25 -37 0 -5 3 -6 8 -4 4
3 13 -1 20 -9 7 -8 10 -14 6 -14 -4 0 5 -11 20 -25 14 -13 26 -29 26 -35 0 -5
8 -10 17 -10 9 0 13 -3 10 -7 -4 -3 2 -12 12 -19 25 -18 33 -62 12 -68 -9 -3
-63 -5 -121 -5 -58 0 -107 0 -110 -1 -3 0 -75 -1 -160 -2 -95 -1 -158 -6 -162
-13 -5 -7 -8 -6 -8 2 0 12 -24 12 -36 0 -4 -3 -15 -2 -25 4 -11 5 -19 6 -19 2
0 -4 -60 -9 -133 -9 -72 -1 -156 -4 -184 -6 -34 -4 -50 -2 -46 5 4 6 1 7 -8 1
-8 -5 -57 -9 -109 -9 -52 -1 -99 -3 -105 -6 -19 -10 -77 -10 -70 1 3 5 -1 10
-9 10 -22 0 -20 16 4 40 11 11 20 27 20 35 0 8 7 15 16 15 8 0 12 5 9 10 -3 6
-1 10 4 10 6 0 11 11 11 25 0 14 5 25 12 25 17 0 57 48 64 76 3 12 12 25 19
28 7 2 16 18 20 34 3 18 14 32 26 35 11 3 19 14 19 25 0 12 9 22 21 25 12 3
18 10 15 16 -4 6 2 18 14 28 11 10 20 23 20 31 0 7 7 15 15 18 8 3 17 14 20
24 3 10 17 30 30 44 14 15 25 36 25 47 0 10 7 19 15 19 8 0 17 11 21 25 3 14
15 30 25 36 11 5 19 14 19 20 0 16 62 79 72 73 4 -3 8 1 8 8 0 9 3 9 10 -2 5
-8 10 -10 10 -3z m230 -817 c-30 -4 -145 -15 -255 -25 -110 -10 -201 -22 -203
-27 -2 -4 -40 -8 -85 -8 -45 0 -109 -7 -142 -15 -33 -9 -112 -18 -175 -22 -63
-3 -118 -11 -122 -16 -4 -7 -84 -12 -206 -13 -134 -2 -228 -8 -284 -19 -46 -9
-117 -20 -158 -25 -114 -14 -208 -34 -222 -48 -6 -6 -15 -12 -20 -12 -14 0
-118 -83 -118 -95 0 -7 -9 -24 -20 -38 -11 -14 -20 -30 -20 -36 0 -17 -38 -56
-47 -48 -12 12 19 146 39 163 10 10 18 24 18 33 0 27 87 129 125 145 85 38
104 44 165 55 39 7 160 10 302 9 220 -3 237 -2 240 15 3 16 34 18 468 23 256
4 467 8 469 10 2 2 72 3 155 3 110 -2 136 -4 96 -9z m1543 -107 c48 -49 62
-72 58 -95 0 -5 2 -8 7 -8 11 0 34 -58 27 -70 -3 -5 -1 -10 5 -10 7 0 10 -7 7
-15 -4 -8 -1 -17 4 -21 6 -3 9 -15 6 -25 -3 -10 -2 -21 2 -24 5 -2 5 -25 1
-50 -4 -25 -4 -45 -1 -45 3 0 6 -45 6 -100 -1 -63 3 -100 10 -100 7 0 7 -3 0
-8 -6 -4 -10 -14 -10 -22 0 -8 -2 -36 -5 -62 -4 -26 -4 -45 0 -43 3 2 5 -16 5
-41 0 -24 -2 -44 -5 -44 -3 0 -2 -51 2 -112 4 -62 5 -119 3 -127 -3 -7 0 -21
7 -29 11 -13 11 -14 -2 -7 -13 8 -13 7 -1 -8 9 -11 10 -17 2 -17 -6 0 -11 -5
-11 -11 0 -5 4 -8 10 -4 5 3 8 -17 7 -51 -1 -41 -6 -58 -17 -61 -13 -4 -13 -3
0 7 12 9 12 13 2 17 -10 4 -10 8 -1 19 10 12 8 13 -7 8 -15 -5 -16 -4 -5 4 12
8 12 14 3 25 -7 7 -9 17 -5 20 3 4 2 7 -4 7 -5 0 -11 27 -12 61 -1 33 -6 68
-11 77 -5 9 -14 69 -19 132 -14 146 -20 205 -27 255 -9 60 -8 60 -16 65 -4 3
-8 61 -9 128 -1 68 -6 125 -10 127 -4 3 -5 14 -2 25 4 14 0 20 -11 20 -13 0
-16 12 -17 63 -1 34 0 70 1 81 1 10 -4 23 -12 27 -10 7 -10 9 0 9 8 0 5 8 -8
22 -15 16 -17 24 -8 30 9 5 8 8 -5 8 -10 0 -15 4 -12 10 7 12 51 -9 78 -37z
m-3591 -890 c11 -220 20 -333 29 -339 5 -3 9 -35 9 -72 1 -37 8 -112 16 -167
21 -135 32 -268 33 -400 1 -60 8 -137 16 -170 8 -33 15 -79 15 -102 0 -23 9
-80 21 -128 11 -48 19 -97 17 -108 -1 -12 2 -28 6 -36 5 -8 15 -40 21 -71 10
-47 10 -57 -1 -56 -7 1 -17 6 -21 11 -4 4 -2 5 6 0 9 -5 12 -4 7 3 -4 6 -13 9
-21 5 -8 -3 -15 0 -15 6 0 6 -7 11 -17 11 -9 0 -13 3 -10 7 4 3 -2 16 -12 27
-11 12 -31 42 -44 67 -23 43 -25 61 -36 310 -7 145 -16 325 -21 399 -4 74 -5
139 0 143 4 5 4 24 -1 42 -6 19 -9 56 -7 82 1 26 -2 166 -6 311 -7 194 -6 262
3 262 6 0 12 -17 13 -37z m3732 -1394 c-1 -28 -11 -46 -47 -84 -26 -27 -45
-51 -42 -53 3 -3 -8 -18 -24 -33 -16 -15 -27 -30 -23 -33 3 -3 3 -6 -1 -6 -3
0 -13 7 -22 16 -13 13 -16 14 -15 3 4 -25 0 -39 -10 -39 -5 0 -7 7 -3 16 4 12
2 15 -8 12 -9 -3 -13 -16 -12 -34 1 -16 0 -23 -3 -16 -5 10 -9 10 -22 0 -13
-11 -15 -11 -8 2 4 9 1 8 -7 -2 -8 -10 -20 -18 -28 -18 -8 0 -34 -7 -59 -16
-31 -11 -92 -17 -195 -19 -82 -2 -152 -4 -155 -5 -8 -3 -96 1 -116 5 -10 2
-25 4 -31 4 -7 1 -13 6 -13 12 0 5 4 7 10 4 5 -3 7 0 5 7 -3 8 6 25 20 38 23
21 38 25 150 31 69 4 159 17 204 28 44 12 106 21 137 21 47 0 66 6 113 35 52
31 141 116 141 134 0 15 26 32 45 29 16 -2 20 -10 19 -39z m-1564 -304 c7 -9
10 -19 6 -23 -4 -4 -107 -8 -229 -8 -226 -2 -221 4 25 23 53 5 100 11 104 16
13 13 81 7 94 -8z"/>
</g>
</svg>
